<svg width="16" height="16" viewBox="0 0 16 16" fill="none" xmlns="http://www.w3.org/2000/svg">
<rect width="16" height="16" rx="8" fill="#E9B878"/>
<path d="M11.2409 9.57129C11.1753 8.81004 10.3972 8.30098 10.3972 8.30098C10.3972 8.30098 11.3891 8.03192 11.4913 6.85629C11.5559 6.10629 11.0834 5.32348 9.89751 4.97473L10.3063 3.43067L9.33313 3.17286L8.92532 4.71317L8.11813 4.49942L8.52595 2.95911L7.55095 2.70129L7.14313 4.24161L5.57563 3.82629L5.31782 4.79848L6.2722 5.05067L5.0272 9.75411L4.07282 9.50004L3.79907 10.5313L5.36657 10.9466L4.95876 12.4897L5.93751 12.7532L6.34626 11.21L7.15345 11.4238L6.74095 12.9688L7.71876 13.2247L8.12751 11.6816L8.35345 11.7407C10.2584 12.2188 11.3534 10.8838 11.2409 9.57129ZM7.88563 5.47817C7.88563 5.47817 8.28126 5.58036 8.84938 5.73317C9.38845 5.87848 9.79907 6.35473 9.67251 6.89192C9.54595 7.42911 8.98438 7.77129 8.3947 7.62504C7.85376 7.49004 7.38782 7.35879 7.38782 7.35879L7.88563 5.47817ZM7.9297 10.5229C7.3672 10.386 6.64063 10.1816 6.64063 10.1816L7.15626 8.22879C7.15626 8.22879 7.81251 8.41629 8.39657 8.55692C9.09501 8.72942 9.52157 9.18786 9.36782 9.80192C9.21407 10.416 8.68813 10.7075 7.9297 10.5229Z" fill="white"/>
</svg>
