<svg width="16" height="16" viewBox="0 0 16 16" fill="none" xmlns="http://www.w3.org/2000/svg">
<rect width="16" height="16" rx="8" fill="#ED643D"/>
<path fill-rule="evenodd" clip-rule="evenodd" d="M4.81 9.61786C5.08352 9.81939 5.43476 9.92016 5.86375 9.92016C6.38198 9.92016 6.79657 9.80212 7.10463 9.56027C7.41557 9.31555 7.63151 8.94415 7.75819 8.45183C7.83592 8.14952 7.89926 7.8357 7.95396 7.51612C7.97124 7.40096 7.97988 7.30595 7.97988 7.2311C7.97988 6.98062 7.91654 6.76468 7.78986 6.5833C7.66318 6.39904 7.49043 6.26084 7.27162 6.17159C7.05281 6.07658 6.80233 6.03052 6.52594 6.03052C5.50674 6.03052 4.87334 6.52572 4.62862 7.51612C4.54225 7.88177 4.47603 8.19271 4.42996 8.45183C4.41269 8.56699 4.40405 8.662 4.40405 8.74261C4.40405 9.11977 4.53937 9.41344 4.81 9.61786ZM6.45396 8.9643C6.31289 9.08235 6.14302 9.14281 5.94148 9.14281C5.59599 9.14281 5.42037 8.9787 5.42325 8.64473C5.42325 8.56411 5.43189 8.48926 5.44628 8.41728C5.5125 8.06603 5.57584 7.77236 5.64206 7.53052C5.70252 7.28292 5.80329 7.10154 5.94436 6.98349C6.08832 6.86545 6.26106 6.80499 6.4626 6.80499C6.80521 6.80499 6.97507 6.9691 6.97507 7.29731C6.97507 7.37793 6.96644 7.45566 6.95204 7.53052C6.90886 7.78388 6.84552 8.07755 6.76202 8.41728C6.70156 8.66488 6.59791 8.84626 6.45396 8.9643ZM8.13825 9.83068C8.16128 9.85659 8.19007 9.86811 8.23038 9.86811H8.96455C9.00197 9.86811 9.03652 9.85659 9.06819 9.83068C9.10274 9.80477 9.12002 9.7731 9.12865 9.73279L9.37626 8.54949H10.1047C10.5768 8.54949 10.9482 8.4516 11.2189 8.25294C11.4953 8.05428 11.6766 7.7491 11.7659 7.33451C11.786 7.23662 11.7976 7.14162 11.7976 7.05236C11.7976 6.73854 11.6738 6.49958 11.429 6.33259C11.1872 6.16848 10.8676 6.08499 10.4674 6.08499H9.03076C8.99334 6.08499 8.95879 6.09651 8.92712 6.12242C8.89257 6.14833 8.87241 6.18 8.86666 6.22031L8.12097 9.73279C8.11522 9.77022 8.12097 9.80189 8.13825 9.83068ZM10.5365 7.68C10.4242 7.7635 10.2947 7.8038 10.1421 7.8038H9.52309L9.7275 6.83643H10.3753C10.5221 6.83643 10.6287 6.86522 10.6891 6.9228C10.7496 6.97751 10.7812 7.05812 10.7812 7.16177C10.7812 7.20783 10.7755 7.26254 10.764 7.323C10.7265 7.47847 10.6517 7.59651 10.5365 7.68Z" fill="white"/>
</svg>
