<svg width="16" height="16" viewBox="0 0 16 16" fill="none" xmlns="http://www.w3.org/2000/svg">
<g id="chain / sui">
<rect width="16" height="16" rx="8" fill="#84A7FA"/>
<path id="icon" fill-rule="evenodd" clip-rule="evenodd" d="M5.08468 11.162C5.69251 12.2159 6.7847 12.8474 8.00036 12.8474C9.21602 12.8474 10.3082 12.2159 10.916 11.162C11.5239 10.108 11.5239 8.84983 10.916 7.79584L8.35176 3.35201C8.19505 3.08139 7.80566 3.08139 7.64896 3.35201L5.08468 7.79584C4.4721 8.84983 4.4721 10.108 5.08468 11.162ZM7.27856 5.46473L7.82466 4.51519C7.90064 4.38226 8.10008 4.38226 8.17606 4.51519L10.2797 8.16142C10.6644 8.83084 10.7403 9.60471 10.4982 10.3169C10.4744 10.2029 10.4364 10.0842 10.3889 9.96554C10.0993 9.22964 9.4392 8.66467 8.43249 8.28486C7.73918 8.02373 7.29756 7.63442 7.12186 7.13592C6.89392 6.49023 7.1361 5.78757 7.27856 5.46473ZM6.34307 7.07894L5.721 8.16142C5.24613 8.98751 5.24613 9.97028 5.721 10.7964C6.19587 11.6225 7.05063 12.1115 8.00036 12.1115C8.63193 12.1115 9.22077 11.8931 9.68613 11.5085C9.74787 11.3566 9.93306 10.8011 9.70038 10.2267C9.48669 9.69492 8.97383 9.27237 8.17131 8.96852C7.26906 8.62669 6.68023 8.0902 6.4238 7.37805C6.39056 7.27835 6.36682 7.17865 6.34307 7.07894Z" fill="white"/>
</g>
</svg>
