<svg width="16" height="16" viewBox="0 0 16 16" fill="none" xmlns="http://www.w3.org/2000/svg">
<g id="chain / avalanche">
<rect width="16" height="16" rx="8" fill="#ED643D"/>
<path id="icon" fill-rule="evenodd" clip-rule="evenodd" d="M3.87519 11.8137H6.21894C6.30582 11.8142 6.39129 11.7919 6.46681 11.7489C6.54233 11.706 6.60525 11.6439 6.64926 11.569L9.67832 6.42685C9.7221 6.3512 9.74516 6.26535 9.74516 6.17794C9.74516 6.09054 9.7221 6.00468 9.67832 5.92904L8.43988 3.74279C8.3966 3.66614 8.33373 3.60237 8.25771 3.55799C8.18169 3.51362 8.09525 3.49023 8.00723 3.49023C7.9192 3.49023 7.83276 3.51362 7.75674 3.55799C7.68072 3.60237 7.61785 3.66614 7.57457 3.74279L3.44207 11.0731C3.3995 11.1487 3.37748 11.2342 3.37819 11.3209C3.3789 11.4077 3.40233 11.4928 3.44613 11.5677C3.48994 11.6426 3.5526 11.7047 3.62788 11.7479C3.70315 11.791 3.78842 11.8137 3.87519 11.8137ZM10.281 8.5878L8.88883 11.0712C8.84606 11.147 8.8239 11.2327 8.82456 11.3197C8.82522 11.4067 8.84868 11.492 8.89259 11.5672C8.93651 11.6423 8.99935 11.7046 9.07485 11.7479C9.15035 11.7911 9.23587 11.8138 9.32289 11.8137H12.1213C12.2083 11.8136 12.2938 11.7907 12.3691 11.7472C12.4445 11.7038 12.5072 11.6413 12.5509 11.5661C12.5946 11.4909 12.6179 11.4056 12.6183 11.3186C12.6188 11.2316 12.5964 11.146 12.5535 11.0703L11.1473 8.5878C11.1039 8.51118 11.0409 8.44744 10.9648 8.4031C10.8887 8.35875 10.8022 8.33539 10.7141 8.33539C10.6261 8.33539 10.5396 8.35875 10.4635 8.4031C10.3874 8.44744 10.3244 8.51118 10.281 8.5878Z" fill="white"/>
</g>
</svg>
