<svg width="16" height="16" viewBox="0 0 16 16" fill="none" xmlns="http://www.w3.org/2000/svg">
<g id="chain / starknet">
<rect width="16" height="16" rx="8" fill="#0F1B54"/>
<path id="Vector" fill-rule="evenodd" clip-rule="evenodd" d="M10.3215 4.62699C10.4003 4.63057 10.5578 4.64847 10.6706 4.66636C10.7834 4.68426 10.9535 4.72542 11.0466 4.75585C11.1397 4.78627 11.2972 4.8507 11.3957 4.89724C11.4942 4.94556 11.6679 5.05115 11.7807 5.13348C11.8934 5.2158 12.0582 5.3554 12.1477 5.44489C12.2372 5.53437 12.3625 5.68292 12.4288 5.77598C12.495 5.86905 12.5863 6.01938 12.6311 6.10708C12.6758 6.19478 12.7117 6.27531 12.7117 6.28605C12.7117 6.29679 12.6579 6.32363 12.5917 6.34869C12.5237 6.37196 12.4091 6.43102 12.3357 6.47934C12.2623 6.52766 12.1369 6.62252 12.0582 6.68874C11.9794 6.75495 11.8505 6.87666 11.7717 6.95898C11.6929 7.04131 11.5264 7.2346 11.4047 7.38851C11.2811 7.54243 11.0591 7.83952 10.9105 8.05071C10.7619 8.26189 10.5453 8.56972 10.4307 8.73795C10.3161 8.90619 10.1514 9.13527 10.0637 9.24802C9.97594 9.36077 9.81301 9.55406 9.70201 9.67755C9.58921 9.79925 9.40838 9.98001 9.30096 10.0767C9.19354 10.1751 9.0145 10.3201 8.90707 10.4024C8.79965 10.4829 8.62598 10.601 8.52214 10.6619C8.4183 10.7245 8.23747 10.8212 8.1193 10.8784C8.00113 10.9357 7.81135 11.0145 7.69856 11.0521C7.58576 11.0914 7.39956 11.1433 7.28677 11.1684C7.17397 11.1934 6.99314 11.2239 6.88393 11.2364C6.76397 11.2489 6.58135 11.2525 6.41843 11.2471C6.26983 11.24 6.08183 11.2239 5.99769 11.2095C5.91354 11.197 5.76135 11.163 5.65751 11.1362C5.55367 11.1093 5.41044 11.0628 5.33882 11.0359C5.269 11.0073 5.1186 10.9393 5.00939 10.8838C4.89838 10.8283 4.73904 10.7389 4.65489 10.6834C4.57074 10.6297 4.44183 10.5366 4.36843 10.4758C4.29502 10.4167 4.15537 10.2914 4.0569 10.1966C3.96022 10.1035 3.81699 9.94601 3.73821 9.84758C3.65943 9.74914 3.5359 9.58091 3.46428 9.47174C3.39087 9.36256 3.28882 9.19075 3.23332 9.08695C3.17961 8.98315 3.10978 8.83639 3.08114 8.75943C3.0507 8.68426 3.02563 8.61446 3.02563 8.60373C3.02563 8.59299 3.13306 8.6091 3.27271 8.64131C3.40699 8.66995 3.58603 8.70753 3.67018 8.72364C3.77223 8.74332 3.92083 8.75227 4.12673 8.75227C4.38454 8.75227 4.46511 8.74511 4.65489 8.70574C4.77843 8.68068 4.9521 8.63415 5.03983 8.60373C5.12755 8.57151 5.26183 8.51424 5.33524 8.47666C5.40865 8.43728 5.54293 8.35496 5.63066 8.29053C5.71838 8.22789 5.86341 8.10798 5.95114 8.02744C6.03886 7.94511 6.18747 7.7912 6.28057 7.68203C6.37367 7.57285 6.65476 7.21133 6.9072 6.87666C7.15786 6.54198 7.43895 6.17509 7.53026 6.06234C7.61978 5.94959 7.78987 5.76346 7.90803 5.64891C8.02441 5.53616 8.18375 5.39298 8.26253 5.33392C8.34131 5.27486 8.47559 5.18001 8.56332 5.12453C8.64926 5.06905 8.78533 4.9903 8.86768 4.95093C8.94825 4.90976 9.08253 4.8507 9.16668 4.8167C9.25083 4.78448 9.39943 4.73795 9.4979 4.71468C9.59637 4.68963 9.7414 4.66099 9.82017 4.65025C9.89895 4.63952 10.0117 4.62878 10.0708 4.6252C10.1299 4.62341 10.2427 4.62341 10.3215 4.62699ZM5.27974 4.77375C5.29585 4.77196 5.31734 4.78269 5.32987 4.79522C5.34061 4.80775 5.38358 4.92587 5.42297 5.05473C5.46415 5.18538 5.50891 5.31603 5.52323 5.34645C5.53755 5.37509 5.57157 5.41625 5.60022 5.43594C5.62707 5.45741 5.72913 5.49858 5.8276 5.52721C5.92607 5.55764 6.04961 5.5988 6.10153 5.6167C6.18568 5.64712 6.19463 5.65607 6.19105 5.69903C6.18568 5.74377 6.17135 5.75451 6.0514 5.79388C5.97799 5.81894 5.85266 5.85831 5.77389 5.88158C5.66646 5.91379 5.61454 5.94064 5.5662 5.98896C5.51249 6.04265 5.48921 6.09276 5.42655 6.295C5.38358 6.42744 5.33882 6.55451 5.3245 6.57598C5.31017 6.59925 5.28332 6.61715 5.26362 6.61715C5.24393 6.61715 5.22066 6.60283 5.21349 6.58493C5.20454 6.56883 5.16336 6.43818 5.1186 6.295C5.05415 6.0856 5.02908 6.02475 4.98253 5.97822C4.93419 5.9299 4.87332 5.90305 4.6531 5.83325C4.48659 5.78135 4.3738 5.73661 4.36127 5.71871C4.34873 5.69724 4.34694 5.67755 4.35948 5.65786C4.37022 5.63997 4.49197 5.59164 4.65489 5.54153C4.88227 5.46994 4.94314 5.4431 4.99149 5.39656C5.03983 5.34824 5.06489 5.28918 5.13293 5.078C5.17769 4.93482 5.22245 4.80775 5.2314 4.79522C5.24214 4.78448 5.26362 4.77375 5.27974 4.77375ZM11.1361 9.95138C11.2704 9.95496 11.3044 9.96391 11.4279 10.023C11.5389 10.0767 11.5819 10.1089 11.6464 10.1912C11.6911 10.2485 11.7448 10.3397 11.7663 10.3934C11.7932 10.465 11.8039 10.5312 11.8039 10.635C11.8039 10.7424 11.7932 10.8051 11.761 10.8856C11.7377 10.9447 11.6911 11.0288 11.6553 11.0735C11.6195 11.1183 11.5497 11.1809 11.4978 11.2113C11.4458 11.2435 11.3617 11.2829 11.3116 11.3008C11.2435 11.3205 11.1755 11.3277 11.0734 11.3223C10.9553 11.3151 10.9087 11.3044 10.8067 11.2525C10.7333 11.2149 10.6527 11.1559 10.6097 11.1093C10.5686 11.0646 10.5184 10.9894 10.4969 10.9429C10.4737 10.8963 10.4468 10.8158 10.4361 10.7639C10.4235 10.712 10.42 10.6243 10.4271 10.5635C10.4343 10.5044 10.4593 10.4113 10.4844 10.3576C10.5095 10.304 10.556 10.227 10.5865 10.1894C10.6187 10.15 10.6796 10.0946 10.7243 10.0659C10.7691 10.0355 10.8461 9.99612 10.8944 9.97822C10.9589 9.95496 11.0251 9.9478 11.1361 9.95138Z" fill="white"/>
<path id="icon" d="M9.48927 4.88088C9.56267 4.86119 9.688 4.83255 9.76678 4.81645C9.87241 4.79676 9.99953 4.79318 10.2502 4.79676C10.5349 4.80392 10.6208 4.81108 10.7783 4.84866C10.8822 4.87372 11.0183 4.91309 11.0827 4.93815C11.1472 4.96141 11.2635 5.01331 11.3423 5.05269C11.4211 5.09385 11.5411 5.16365 11.6109 5.21018C11.6807 5.25672 11.8042 5.35336 11.8866 5.42316C11.969 5.49296 12.0907 5.61466 12.157 5.6934C12.2232 5.77215 12.3056 5.88132 12.3432 5.93502C12.379 5.98871 12.4076 6.04061 12.4076 6.05135C12.4076 6.06209 12.3772 6.06388 12.3235 6.05493C12.2751 6.04777 12.1444 6.02808 12.0316 6.01376C11.9188 5.99945 11.6897 5.98692 11.5214 5.98692C11.3208 5.98513 11.1561 5.99587 11.038 6.01555C10.9395 6.03166 10.798 6.06387 10.7246 6.08893C10.6512 6.11399 10.5223 6.16947 10.4382 6.21242C10.354 6.25537 10.218 6.34844 10.1338 6.41645C10.0497 6.48625 9.9297 6.60079 9.86704 6.67238C9.80617 6.74397 9.69874 6.87998 9.6325 6.97305C9.56625 7.06611 9.39975 7.3292 9.26547 7.5547C9.1294 7.78021 8.98617 8.01466 8.94678 8.07372C8.90739 8.13278 8.80534 8.27417 8.72298 8.38692C8.63883 8.49967 8.50992 8.66611 8.43652 8.75381C8.36132 8.84151 8.19123 9.02406 8.05874 9.1565C7.92446 9.28893 7.74721 9.45359 7.66307 9.51981C7.57892 9.58782 7.42673 9.69878 7.32289 9.76679C7.21905 9.83659 7.05791 9.93144 6.96481 9.97976C6.87171 10.0263 6.73385 10.0907 6.66045 10.1194C6.58704 10.1498 6.45276 10.1945 6.36503 10.2196C6.2773 10.2446 6.13049 10.2786 6.04276 10.293C5.94608 10.3109 5.77778 10.3216 5.62202 10.3216C5.46625 10.3216 5.29796 10.3091 5.20128 10.293C5.11355 10.2769 4.97211 10.2446 4.88796 10.2196C4.80381 10.1927 4.66237 10.139 4.57464 10.0979C4.48691 10.0567 4.34547 9.97797 4.26132 9.92249C4.17717 9.86701 4.04826 9.77037 3.97486 9.70773C3.90145 9.6433 3.77612 9.51623 3.69914 9.42316C3.62036 9.3301 3.51473 9.1905 3.46281 9.11175C3.41088 9.03301 3.35538 8.93815 3.33748 8.90236C3.31778 8.86477 3.30704 8.83077 3.31241 8.82719C3.31778 8.82361 3.39477 8.83435 3.4825 8.85224C3.57023 8.87014 3.7242 8.8952 3.82267 8.90773C3.93368 8.92025 4.08765 8.92562 4.22551 8.91846C4.34905 8.91309 4.51735 8.8952 4.6015 8.87909C4.68564 8.86477 4.83067 8.83077 4.92377 8.8075C5.01687 8.78245 5.15831 8.73412 5.23708 8.69833C5.31586 8.66432 5.4394 8.60347 5.51281 8.56052C5.58442 8.51936 5.71333 8.43345 5.79927 8.36902C5.88342 8.30638 6.03918 8.16857 6.14302 8.06477C6.24687 7.96097 6.39547 7.79989 6.47246 7.70683C6.54944 7.61376 6.78219 7.3113 6.98988 7.03569C7.19577 6.76007 7.44643 6.43077 7.5449 6.30191C7.64516 6.17484 7.80988 5.98155 7.91372 5.87417C8.01756 5.76678 8.17512 5.61824 8.26285 5.54486C8.35058 5.47148 8.49202 5.3641 8.57617 5.30862C8.66031 5.25135 8.79638 5.16902 8.88053 5.12428C8.96468 5.07953 9.10433 5.0151 9.19385 4.9811C9.28337 4.94531 9.41586 4.90056 9.48927 4.88088Z" fill="#0F1B54"/>
</g>
</svg>
